<?xml version="1.0" encoding="UTF-8" standalone="no"?>
<!DOCTYPE svg PUBLIC "-//W3C//DTD SVG 1.1//EN" "http://www.w3.org/Graphics/SVG/1.1/DTD/svg11.dtd">
<!-- 由 Microsoft Visio, SVG Export 生成 server.svg 页-1 -->
<svg xmlns="http://www.w3.org/2000/svg" xmlns:xlink="http://www.w3.org/1999/xlink" xmlns:ev="http://www.w3.org/2001/xml-events"
		xmlns:v="http://schemas.microsoft.com/visio/2003/SVGExtensions/" width="3.01974in" height="1.49721in"
		viewBox="0 0 217.422 107.799" xml:space="preserve" color-interpolation-filters="sRGB" class="st19">
	<v:documentProperties v:langID="2052" v:metric="true" v:viewMarkup="false"/>

	<style type="text/css">
	<![CDATA[
		.st1 {stroke:#9933ff;stroke-linecap:round;stroke-linejoin:round;stroke-width:3}
		.st2 {stroke:#538135;stroke-width:3}
		.st3 {stroke:#4672c4;stroke-linecap:round;stroke-linejoin:round;stroke-width:3}
		.st4 {stroke:#ff0000;stroke-linecap:round;stroke-linejoin:round;stroke-width:3}
		.st5 {fill:#008000;fill-opacity:0.8;stroke:none;stroke-linecap:butt;stroke-width:0.719943}
		.st6 {fill:none;stroke:none;stroke-linecap:butt;stroke-width:0.75}
		.st7 {fill:#008000;font-family:Microsoft Sans Serif;font-size:4.00001em;font-stretch:normal;font-style:italic;font-weight:bold}
		.st8 {fill:#4062d8;fill-opacity:0.4;stroke:#4063d8;stroke-linecap:butt;stroke-width:1.17638}
		.st9 {fill:#4062d8;fill-opacity:0.4;stroke:#4063d8;stroke-linecap:butt;stroke-width:0.744015}
		.st10 {fill:#4062d8;fill-opacity:0.4;stroke:#4063d8;stroke-linecap:round;stroke-linejoin:round;stroke-width:1.17638}
		.st11 {fill:#00ff00;fill-opacity:0.8;stroke:#009800;stroke-linecap:butt;stroke-opacity:0.8;stroke-width:0.670836}
		.st12 {fill:#ff0000;fill-opacity:0.61;stroke:#db1228;stroke-linecap:butt;stroke-opacity:0.8;stroke-width:0.670836}
		.st13 {fill:#005dff;fill-opacity:0.75;stroke:#075efa;stroke-linecap:butt;stroke-opacity:0.85;stroke-width:0.670836}
		.st14 {fill:#ffffff}
		.st15 {stroke:#ffffff;stroke-linecap:round;stroke-linejoin:round;stroke-width:1.17638}
		.st16 {fill:#800000;font-family:Microsoft Sans Serif;font-size:4.00001em;font-stretch:normal}
		.st17 {fill:#ffffff;stroke:none;stroke-linecap:round;stroke-linejoin:round;stroke-width:0.566929}
		.st18 {fill:#800080;fill-opacity:0.6;stroke:#8e00bf;stroke-linecap:round;stroke-linejoin:round;stroke-width:0.566929}
		.st19 {fill:none;fill-rule:evenodd;font-size:12px;overflow:visible;stroke-linecap:square;stroke-miterlimit:3}
	]]>
	</style>

	<g v:mID="0" v:index="1" v:groupContext="foregroundPage">
		<title>页-1</title>
		<v:pageProperties v:drawingScale="0.0393701" v:pageScale="0.0393701" v:drawingUnits="24" v:shadowOffsetX="8.50394"
				v:shadowOffsetY="-8.50394"/>
		<g id="group184-1" transform="translate(10.3271,0)" v:mID="184" v:groupContext="group">
			<title>工作表.184</title>
			<g id="group31-2" v:mID="31" v:groupContext="group">
				<title>工作表.31</title>
				<g id="group29-3" transform="translate(0,-5.38906)" v:mID="29" v:groupContext="group">
					<title>工作表.29</title>
					<g id="shape6-4" v:mID="6" v:groupContext="shape" transform="translate(50.634,-68.1079)">
						<title>工作表.6</title>
						<path d="M0 107.8 A56.6929 56.6929 0 0 1 102.83 107.8" class="st1"/>
					</g>
					<g id="shape18-7" v:mID="18" v:groupContext="shape" transform="translate(153.46,-1.75261E-09)">
						<title>工作表.18</title>
						<path d="M0 39.75 A48.189 48.1451 0 0 1 50.63 87.84 A48.189 48.1451 0 0 1 46.3 107.8" class="st2"/>
					</g>
					<g id="shape23-10" v:mID="23" v:groupContext="shape"
							transform="translate(66.5377,-0.0649326) rotate(0.0279212)">
						<title>工作表.23</title>
						<path d="M0 107.8 L25.58 107.8" class="st3"/>
					</g>
					<g id="shape24-13" v:mID="24" v:groupContext="shape"
							transform="translate(137.619,-0.0302937) rotate(0.0279212)">
						<title>工作表.24</title>
						<path d="M0 107.8 L62.19 107.8" class="st3"/>
					</g>
					<g id="shape25-16" v:mID="25" v:groupContext="shape"
							transform="translate(92.1167,-0.0524676) rotate(0.0279212)">
						<title>工作表.25</title>
						<path d="M0 107.8 L19.97 107.8" class="st3"/>
					</g>
					<g id="shape26-19" v:mID="26" v:groupContext="shape"
							transform="translate(112.087,-0.0427356) rotate(0.0279212)">
						<title>工作表.26</title>
						<path d="M0 107.8 L25.53 107.8" class="st3"/>
					</g>
					<g id="shape27-22" v:mID="27" v:groupContext="shape"
							transform="translate(4.34694,-0.0952392) rotate(0.0279212)">
						<title>工作表.27</title>
						<path d="M0 107.8 L62.19 107.8" class="st3"/>
					</g>
					<g id="group28-25" transform="translate(0,-0.095252)" v:mID="28" v:groupContext="group">
						<title>工作表.28</title>
						<g id="shape16-26" v:mID="16" v:groupContext="shape"
								transform="translate(-101.076,130.554) rotate(-102.186)">
							<title>工作表.16</title>
							<path d="M0 107.8 A48.189 48.189 47.58 0 1 20.34 107.8" class="st4"/>
						</g>
						<g id="shape17-29" v:mID="17" v:groupContext="shape"
								transform="translate(-74.2666,9.77804) rotate(-43.5458)">
							<title>工作表.17</title>
							<path d="M-0 107.8 A48.189 48.189 52.9 0 1 69.86 107.8" class="st4"/>
						</g>
					</g>
				</g>
			</g>
			<g id="group183-32" transform="translate(31.0496,-7.08662)" v:mID="183" v:groupContext="group">
				<title>工作表.183</title>
				<g id="shape167-33" v:mID="167" v:groupContext="shape" transform="translate(85.5464,-41.3761)">
					<title>path7960-1</title>
					<path d="M21.08 93.04 L13.11 98.97 L15.88 100.59 L2.78 107.8 C16.01 105.91 17.67 104.71 21.65 97.74 C23.2 94.92
								 25.4 90.44 25.4 90.44 C17.8 91.9 0 90.33 1.86 107.14 C2.94 106.2 10.4 100.88 10.4 100.88 L7.46 99.35
								 L21.08 93.04 Z" class="st5"/>
				</g>
				<g id="shape168-35" v:mID="168" v:groupContext="shape" transform="translate(98.2463,-8.52651E-14)">
					<title>text10329-4</title>
					<desc>E</desc>
					<v:textBlock v:margins="rect(0,0,0,0)" v:tabSpace="42.5197"/>
					<v:textRect cx="26.1264" cy="77.7208" width="52.26" height="60.1568"/>
					<rect x="0" y="47.6424" width="52.2529" height="60.1568" class="st6"/>
					<text x="0" y="92.12" class="st7" v:langID="2052"><v:paragraph/><v:tabList/>E</text>				</g>
				<g id="group169-38" transform="translate(44.2109,-11.4372)" v:mID="169" v:groupContext="group">
					<title>g933-9</title>
					<g id="shape170-39" v:mID="170" v:groupContext="shape" transform="translate(0,-8.35858)">
						<title>path2254-5</title>
						<path d="M28.07 71.8 L0 107.8 L28.07 107.8 L28.07 71.8 Z" class="st8"/>
					</g>
					<g id="shape171-41" v:mID="171" v:groupContext="shape" transform="translate(42.9285,-7.37144)">
						<title>ellipse2244-7</title>
						<ellipse cx="4.92127" cy="102.526" rx="4.92127" ry="5.27305" class="st9"/>
					</g>
					<g id="shape172-43" v:mID="172" v:groupContext="shape" transform="translate(32.6187,0)">
						<title>rect2246-4</title>
						<rect x="0" y="59.6132" width="6.61089" height="48.186" class="st10"/>
					</g>
					<g id="shape173-45" v:mID="173" v:groupContext="shape" transform="translate(19.1296,-19.8103)">
						<title>path22-9</title>
						<ellipse cx="4.12692" cy="103.496" rx="4.12692" ry="4.30306" class="st11"/>
					</g>
					<g id="shape174-47" v:mID="174" v:groupContext="shape" transform="translate(8.8123,-9.05301)">
						<title>circle24-1</title>
						<ellipse cx="4.12692" cy="103.496" rx="4.12692" ry="4.30306" class="st12"/>
					</g>
					<g id="shape175-49" v:mID="175" v:groupContext="shape" transform="translate(19.1296,-9.0527)">
						<title>circle26-5</title>
						<ellipse cx="4.12692" cy="103.496" rx="4.12692" ry="4.30306" class="st13"/>
					</g>
					<g id="shape176-51" v:mID="176" v:groupContext="shape" transform="translate(5.59283,-14.5325)">
						<title>path2201-2</title>
						<path d="M0 107.8 L19.72 87.86 L0 107.8 Z" class="st14"/>
						<path d="M0 107.8 L19.72 87.86" class="st15"/>
					</g>
					<g id="shape177-54" v:mID="177" v:groupContext="shape" transform="translate(14.1954,-25.5572)">
						<title>path2203-0</title>
						<path d="M0 107.8 L11.64 101.89 L0 107.8 Z" class="st14"/>
						<path d="M0 107.8 L11.64 101.89" class="st15"/>
					</g>
				</g>
				<g id="group178-57" transform="translate(-1.59872E-14,-0.432845)" v:mID="178" v:groupContext="group">
					<title>g24534</title>
					<g id="shape179-58" v:mID="179" v:groupContext="shape">
						<title>text12-7</title>
						<desc>Ai</desc>
						<v:textBlock v:margins="rect(0,0,0,0)" v:tabSpace="42.5197"/>
						<v:textRect cx="47.7012" cy="78.4981" width="95.41" height="58.6023"/>
						<rect x="0" y="49.197" width="95.4024" height="58.6023" class="st6"/>
						<text x="-0" y="92.9" class="st16" v:langID="2052"><v:paragraph/><v:tabList/>Ai</text>					</g>
					<g id="group180-61" transform="translate(33.2725,-43.2314)" v:mID="180" v:groupContext="group">
						<title>g24182</title>
						<g id="shape181-62" v:mID="181" v:groupContext="shape">
							<title>circle23998</title>
							<ellipse cx="3.60722" cy="104.192" rx="3.60722" ry="3.60722" class="st17"/>
						</g>
						<g id="shape182-64" v:mID="182" v:groupContext="shape">
							<title>path2307-1</title>
							<ellipse cx="3.60722" cy="104.192" rx="3.60722" ry="3.60722" class="st18"/>
						</g>
					</g>
				</g>
			</g>
		</g>
	</g>
</svg>
