<svg xmlns="http://www.w3.org/2000/svg" xmlns:xlink="http://www.w3.org/1999/xlink" viewBox="0 0 223.39 193.22"><defs><linearGradient id="未命名的渐变_39" x1="68.03" y1="164.08" x2="193.06" y2="159.93" gradientUnits="userSpaceOnUse"><stop offset="0" stop-color="#009a3e"/><stop offset="1" stop-color="#7e318e"/></linearGradient><linearGradient id="未命名的渐变_51" x1="137.81" y1="46.37" x2="186.99" y2="125.77" gradientUnits="userSpaceOnUse"><stop offset="0" stop-color="#b4352d"/><stop offset="1" stop-color="#804b96"/></linearGradient><linearGradient id="未命名的渐变_43" x1="26.77" y1="145.19" x2="108.54" y2="8.3" gradientUnits="userSpaceOnUse"><stop offset="0" stop-color="#368539"/><stop offset="1" stop-color="#b4352d"/></linearGradient></defs><g id="图层_2" data-name="图层 2"><g id="图层_1-2" data-name="图层 1"><polygon points="223 131.52 223.39 131.29 223 131.52 223 131.52" style="fill:none;opacity:0.9"/><polygon points="223 131.52 223.39 131.29 223.26 131.07 223 131.52" style="fill:none;opacity:0.9"/><polygon points="223.39 130.84 223.13 130.84 223.26 131.07 223.39 130.84" style="fill:none;opacity:0.9"/><g style="opacity:0.9"><polygon points="223.39 131.29 187.64 193.22 187.38 192.77 36.04 192.77 36.04 192.72 53.63 162.25 71.5 131.29 71.76 130.84 151.63 130.84 151.89 130.84 187.64 130.84 223.13 130.84 223.26 131.07 223 131.52 223.39 131.29" style="fill:url(#未命名的渐变_39)"/><polygon points="147.59 0 223.13 130.84 187.64 130.84 151.89 130.84 151.63 130.84 111.84 61.93 147.59 0" style="fill:url(#未命名的渐变_51)"/><polygon points="111.84 61.93 151.63 130.84 71.76 130.84 111.7 61.68 111.84 61.93" style="fill:#fff"/><polygon points="147.59 0 111.84 61.93 111.7 61.68 71.76 130.84 71.5 131.29 53.63 162.25 36.04 192.72 36.04 192.77 36.02 192.74 35.75 193.22 0 131.29 75.8 0 76.23 0.25 76.09 0 147.59 0" style="fill:url(#未命名的渐变_43)"/></g><g id="group185-1"><g id="shape186-2"><path d="M127.8,110l-3,2.19,1,.61L121,115.49c4.91-.71,5.52-1.15,7-3.74.58-1,1.39-2.71,1.39-2.71-2.82.54-9.43,0-8.74,6.2.41-.35,3.17-2.33,3.17-2.33l-1.09-.56Z" style="fill:#187c3a;fill-opacity:0.800000011920929;fill-rule:evenodd"/></g><g id="shape187-4"><rect x="124.69" y="108.51" width="19.39" height="22.33" style="fill:none"/><text transform="translate(124.69 125.02)" style="isolation:isolate;font-size:17.816110610961914px;fill:#187c3a;font-family:MicrosoftSansSerif, Microsoft Sans Serif">E</text></g><g id="group188-7"><g id="shape189-8"><path d="M115.05,110.13,104.63,123.5h10.42Z" style="fill:#3e5eaa;fill-opacity:0.400000005960465;stroke:#3f5fab;stroke-miterlimit:3;stroke-width:1.17638003826141px;fill-rule:evenodd"/></g><g id="shape190-10"><ellipse cx="122.39" cy="121.9" rx="1.83" ry="1.96" style="fill:#3e5eaa;fill-opacity:0.400000005960465;stroke:#3f5fab;stroke-miterlimit:3;stroke-width:0.744014978408814px"/></g><g id="shape191-12"><rect x="116.74" y="108.71" width="2.45" height="17.89" style="fill:#3e5eaa;fill-opacity:0.400000005960465;stroke:#3f5fab;stroke-linecap:round;stroke-linejoin:round;stroke-width:1.17638003826141px"/></g><g id="shape192-14"><ellipse cx="113.26" cy="117.65" rx="1.53" ry="1.6" style="fill:#6ab82d;fill-opacity:0.800000011920929;stroke:#1b923b;stroke-miterlimit:3;stroke-opacity:0.800000011920929;stroke-width:0.670835971832275px"/></g><g id="shape193-16"><ellipse cx="109.43" cy="121.64" rx="1.53" ry="1.6" style="fill:#e7211a;fill-opacity:0.610000014305115;stroke:#ce1c29;stroke-miterlimit:3;stroke-opacity:0.800000011920929;stroke-width:0.670835971832275px"/></g><g id="shape194-18"><ellipse cx="113.26" cy="121.64" rx="1.53" ry="1.6" style="fill:#2b5eab;fill-opacity:0.75;stroke:#2d5eab;stroke-miterlimit:3;stroke-opacity:0.850000023841858;stroke-width:0.670835971832275px"/></g><g id="shape195-20"><path d="M106.71,121.2l7.32-7.4Z" style="fill:#fff;fill-rule:evenodd"/><path d="M106.71,121.2l7.32-7.4" style="fill:none;stroke:#fff;stroke-linecap:round;stroke-linejoin:round;stroke-width:1.17638003826141px"/></g><g id="shape196-23"><path d="M109.9,117.11l4.32-2.19Z" style="fill:#fff;fill-rule:evenodd"/><path d="M109.9,117.11l4.32-2.19" style="fill:none;stroke:#fff;stroke-linecap:round;stroke-linejoin:round;stroke-width:1.17638003826141px"/></g></g><g id="group197-26"><g id="shape198-27"><rect x="88.22" y="109.09" width="35.41" height="21.75" style="fill:none"/><text transform="translate(88.22 125.31)" style="isolation:isolate;font-size:17.816110610961914px;fill:#7b171c;font-family:MicrosoftSansSerif, Microsoft Sans Serif">Ai</text></g><g id="group199-30"><g id="shape200-31"><circle cx="101.91" cy="113.46" r="1.34" style="fill:#fff"/></g><g id="shape201-33"><circle cx="101.91" cy="113.46" r="1.34" style="fill:#761c78;fill-opacity:0.600000023841858;stroke:#723590;stroke-linecap:round;stroke-linejoin:round;stroke-width:0.56692898273468px"/></g></g></g></g></g></g></svg>