<svg xmlns="http://www.w3.org/2000/svg" xmlns:xlink="http://www.w3.org/1999/xlink" viewBox="0 0 223.39 193.22"><defs><style>.cls-1{fill:none;}.cls-1,.cls-2{opacity:0.9;}.cls-3{fill:url(#未命名的渐变_39);}.cls-4{fill:url(#未命名的渐变_51);}.cls-5{fill:#fff;}.cls-6{fill:url(#未命名的渐变_43);}</style><linearGradient id="未命名的渐变_39" x1="68.03" y1="164.08" x2="193.06" y2="159.93" gradientUnits="userSpaceOnUse"><stop offset="0" stop-color="#009a3e"/><stop offset="1" stop-color="#7e318e"/></linearGradient><linearGradient id="未命名的渐变_51" x1="137.81" y1="46.37" x2="186.99" y2="125.77" gradientUnits="userSpaceOnUse"><stop offset="0" stop-color="#b4352d"/><stop offset="1" stop-color="#804b96"/></linearGradient><linearGradient id="未命名的渐变_43" x1="26.77" y1="145.19" x2="108.54" y2="8.3" gradientUnits="userSpaceOnUse"><stop offset="0" stop-color="#368539"/><stop offset="1" stop-color="#b4352d"/></linearGradient></defs><g id="图层_2" data-name="图层 2"><g id="图层_1-2" data-name="图层 1"><polygon class="cls-1" points="223 131.52 223.39 131.29 223 131.52 223 131.52"/><polygon class="cls-1" points="223 131.52 223.39 131.29 223.26 131.07 223 131.52"/><polygon class="cls-1" points="223.39 130.84 223.13 130.84 223.26 131.07 223.39 130.84"/><g class="cls-2"><polygon class="cls-3" points="223.39 131.29 187.64 193.22 187.38 192.77 36.04 192.77 36.04 192.72 53.63 162.25 71.5 131.29 71.76 130.84 151.63 130.84 151.89 130.84 187.64 130.84 223.13 130.84 223.26 131.07 223 131.52 223.39 131.29"/><polygon class="cls-4" points="147.59 0 223.13 130.84 187.64 130.84 151.89 130.84 151.63 130.84 111.84 61.93 147.59 0"/><polygon class="cls-5" points="111.84 61.93 151.63 130.84 71.76 130.84 111.7 61.68 111.84 61.93"/><polygon class="cls-6" points="147.59 0 111.84 61.93 111.7 61.68 71.76 130.84 71.5 131.29 53.63 162.25 36.04 192.72 36.04 192.77 36.02 192.74 35.75 193.22 0 131.29 75.8 0 76.23 0.25 76.09 0 147.59 0"/></g></g></g></svg>